<svg width="378.301" height="85.602" viewBox="0 0 378.301 85.602" xmlns="http://www.w3.org/2000/svg"><g id="svgGroup" stroke-linecap="round" fill-rule="nonzero" font-size="9pt" stroke="#66666659" stroke-width="0.25mm" fill="#0cb000" style="stroke:#66666659;stroke-width:0.25mm;fill:#0cb000"><path d="M 116.5 27.801 L 110.4 56.401 Q 109.635 60.229 109.455 63.236 A 29.663 29.663 0 0 0 109.4 65.001 A 14.478 14.478 0 0 0 109.572 67.31 Q 109.979 69.824 111.35 71.301 A 6.381 6.381 0 0 0 114.764 73.196 A 9.57 9.57 0 0 0 116.8 73.401 A 10.378 10.378 0 0 0 121.367 72.313 A 13.792 13.792 0 0 0 123.25 71.201 Q 126.096 69.214 129.879 64.86 A 84.227 84.227 0 0 0 130.7 63.901 A 4.764 4.764 0 0 1 131.54 63.118 A 3.137 3.137 0 0 1 133.4 62.501 A 2.225 2.225 0 0 1 135.15 63.293 A 3.165 3.165 0 0 1 135.45 63.701 A 4.376 4.376 0 0 1 135.943 64.849 Q 136.2 65.77 136.2 67.001 Q 136.2 70.901 134.3 73.201 A 53.024 53.024 0 0 1 130.414 77.448 Q 127.188 80.588 124 82.401 Q 118.9 85.301 113.3 85.301 A 23.026 23.026 0 0 1 107.781 84.677 A 15.644 15.644 0 0 1 100 80.251 A 16.98 16.98 0 0 1 95.723 71.936 A 24.864 24.864 0 0 1 95.2 66.701 A 41.494 41.494 0 0 1 95.39 62.963 Q 95.761 58.896 96.86 53.224 A 186.676 186.676 0 0 1 97.6 49.601 L 101.6 31.301 Q 101.765 30.56 102.133 28.87 A 2212.332 2212.332 0 0 0 102.3 28.101 A 69.311 69.311 0 0 0 102.847 25.324 A 57.189 57.189 0 0 0 103.1 23.751 Q 103.4 21.701 103.4 19.701 A 14.478 14.478 0 0 0 103.281 17.777 Q 102.999 15.681 102.05 14.451 A 4.392 4.392 0 0 0 98.953 12.744 A 6.435 6.435 0 0 0 98.2 12.701 A 8.608 8.608 0 0 0 94.326 13.69 Q 91.418 15.147 88.35 18.751 A 31.715 31.715 0 0 0 85.219 23.242 Q 82.327 28.165 79.602 35.754 A 134.051 134.051 0 0 0 78.55 38.801 A 131.241 131.241 0 0 0 75.434 49.948 Q 74.146 55.4 73.038 61.713 A 303.561 303.561 0 0 0 71 75.201 Q 70.478 79.673 69.373 81.951 A 6.09 6.09 0 0 1 68.55 83.251 Q 67.128 84.916 64.287 85.229 A 12.707 12.707 0 0 1 62.9 85.301 A 11.468 11.468 0 0 1 61.134 85.174 Q 59.064 84.851 57.95 83.701 Q 56.632 82.34 56.435 78.955 A 21.597 21.597 0 0 1 56.4 77.701 Q 56.4 73.788 57.402 67.553 A 132.113 132.113 0 0 1 57.5 66.951 Q 58.6 60.301 60.3 51.301 A 751.678 751.678 0 0 0 61.863 42.831 Q 64.9 25.788 64.9 20.101 A 15.886 15.886 0 0 0 64.785 18.122 Q 64.492 15.795 63.45 14.501 A 4.645 4.645 0 0 0 60.85 12.895 Q 60.053 12.701 59.1 12.701 A 9.94 9.94 0 0 0 54.755 13.763 Q 53.208 14.51 51.631 15.782 A 26.073 26.073 0 0 0 49 18.251 A 27.166 27.166 0 0 0 45.935 22.304 Q 43.175 26.666 40.488 33.521 A 127.614 127.614 0 0 0 38.85 37.951 Q 34.12 51.474 30.896 74.085 A 386.167 386.167 0 0 0 30.6 76.201 Q 30.056 80.163 29.12 82.255 A 6.944 6.944 0 0 1 28.55 83.301 Q 27.223 85.268 23.429 85.3 A 14.959 14.959 0 0 1 23.3 85.301 A 13.105 13.105 0 0 1 21.434 85.178 Q 19.163 84.85 18 83.651 A 4.359 4.359 0 0 1 17.127 82.261 Q 16.564 80.898 16.437 78.732 A 22.782 22.782 0 0 1 16.4 77.401 Q 16.4 74.301 17.05 69.451 Q 17.548 65.738 18.544 59.885 A 628.03 628.03 0 0 1 19.2 56.101 A 1084.352 1084.352 0 0 0 20.995 44.916 Q 21.679 40.502 22.255 36.499 A 581.485 581.485 0 0 0 23.3 28.901 A 145.996 145.996 0 0 0 23.831 24.036 Q 24.039 21.752 24.129 19.78 A 62.731 62.731 0 0 0 24.2 16.901 A 9.041 9.041 0 0 0 24.069 15.287 Q 23.562 12.506 21.089 12.405 A 4.635 4.635 0 0 0 20.9 12.401 A 6.556 6.556 0 0 0 18.942 12.728 Q 17.209 13.272 15.119 14.718 A 25.283 25.283 0 0 0 14.65 15.051 A 25.425 25.425 0 0 0 12.052 17.245 Q 9.493 19.69 6.611 23.486 A 79.572 79.572 0 0 0 6.6 23.501 A 6.407 6.407 0 0 1 5.789 24.419 Q 5.272 24.895 4.719 25.14 A 2.978 2.978 0 0 1 3.5 25.401 Q 2.1 25.401 1.05 24.051 Q 0 22.701 0 21.001 A 8.498 8.498 0 0 1 0.381 18.522 A 10.159 10.159 0 0 1 0.65 17.751 A 12.625 12.625 0 0 1 1.257 16.45 Q 1.863 15.313 2.8 14.001 A 43.374 43.374 0 0 1 7.865 8.073 A 33.296 33.296 0 0 1 13.5 3.651 A 25.981 25.981 0 0 1 18.939 1.062 A 20.002 20.002 0 0 1 25.3 0.001 Q 30.8 0.001 33.75 3.501 A 11.291 11.291 0 0 1 35.815 7.32 Q 36.354 8.972 36.565 10.98 A 26.099 26.099 0 0 1 36.7 13.701 A 35.904 35.904 0 0 1 36.618 16.051 Q 36.535 17.311 36.368 18.729 A 68.571 68.571 0 0 1 36.2 20.051 A 280.088 280.088 0 0 1 35.956 21.791 Q 35.65 23.927 35.386 25.501 A 89.794 89.794 0 0 1 35.3 26.001 A 201.394 201.394 0 0 1 35.115 27.048 Q 34.879 28.367 34.733 29.049 A 18.691 18.691 0 0 1 34.7 29.201 Q 39.754 14.749 45.908 8.04 A 24.73 24.73 0 0 1 47.5 6.451 A 26.426 26.426 0 0 1 53.86 2.099 A 21.179 21.179 0 0 1 63.1 0.001 A 14.746 14.746 0 0 1 67.759 0.703 A 11.948 11.948 0 0 1 73.35 4.601 Q 76.413 8.358 76.974 14.652 A 33.239 33.239 0 0 1 77.1 17.601 Q 77.1 19.976 76.634 23.18 A 71.646 71.646 0 0 1 76.2 25.801 A 81.638 81.638 0 0 1 79.405 18.116 Q 83.112 10.44 87.587 6.286 A 23.658 23.658 0 0 1 87.9 6.001 Q 94.6 0.001 103.3 0.001 A 17.387 17.387 0 0 1 107.729 0.533 A 11.973 11.973 0 0 1 114.05 4.501 Q 117.8 9.001 117.8 17.101 A 37.734 37.734 0 0 1 117.617 20.668 Q 117.313 23.863 116.5 27.801 Z M 308.3 13.401 L 304.8 13.101 Q 298.9 12.601 293.05 12.301 A 231.678 231.678 0 0 0 283.966 12.02 A 264.372 264.372 0 0 0 280.8 12.001 L 276.3 12.001 Q 275.1 26.801 273.8 39.001 L 291 38.701 A 16.56 16.56 0 0 1 292.6 38.772 Q 294.239 38.932 295.205 39.45 A 2.968 2.968 0 0 1 295.95 40.001 A 4.358 4.358 0 0 1 297.066 42.154 A 6.393 6.393 0 0 1 297.2 43.501 A 9.304 9.304 0 0 1 296.942 45.757 A 6.381 6.381 0 0 1 295.2 48.851 Q 293.392 50.614 290.193 50.783 A 13.149 13.149 0 0 1 289.5 50.801 L 272.4 50.801 L 271.8 55.101 A 74.453 74.453 0 0 1 270.243 63.631 Q 268.054 72.44 263.938 77.394 A 20.008 20.008 0 0 1 262.85 78.601 A 22.602 22.602 0 0 1 251.321 84.847 A 33.643 33.643 0 0 1 244 85.601 A 27.278 27.278 0 0 1 234.047 83.8 A 25.982 25.982 0 0 1 231.5 82.651 A 27.47 27.47 0 0 1 227.505 80.155 Q 225.306 78.486 223.815 76.521 A 15.96 15.96 0 0 1 223.1 75.501 A 6.75 6.75 0 0 1 222.13 72.968 A 9.08 9.08 0 0 1 222 71.401 Q 222 69.001 223.15 67.201 Q 224.3 65.401 226 65.401 A 3.787 3.787 0 0 1 227.661 65.795 A 5.051 5.051 0 0 1 228.35 66.201 Q 229.5 67.001 231.3 69.301 A 17.765 17.765 0 0 0 235.047 73.015 A 13.645 13.645 0 0 0 243.2 75.601 A 11.739 11.739 0 0 0 252.012 71.782 A 15.722 15.722 0 0 0 252.75 70.951 A 16.795 16.795 0 0 0 255.162 66.918 Q 256.995 62.707 257.7 56.301 L 258.3 50.801 L 253.5 50.801 Q 251.2 50.801 249.55 49.501 Q 247.9 48.201 247.9 45.801 A 9.609 9.609 0 0 1 248.068 43.943 Q 248.281 42.867 248.761 42.034 A 4.968 4.968 0 0 1 249.5 41.051 A 5.092 5.092 0 0 1 251.699 39.74 Q 252.517 39.487 253.507 39.423 A 10.719 10.719 0 0 1 254.2 39.401 Q 257 39.401 259.7 39.301 Q 260.525 31.738 261.445 21.954 A 1972.073 1972.073 0 0 0 262.3 12.601 A 90.259 90.259 0 0 0 257.3 13.195 Q 250.4 14.226 247.1 16.101 Q 242.933 18.469 242.712 22.989 A 10.506 10.506 0 0 0 242.7 23.501 A 11.586 11.586 0 0 0 244.231 29.221 A 14.176 14.176 0 0 0 244.7 30.001 A 3.904 3.904 0 0 1 245.1 30.76 A 2.876 2.876 0 0 1 245.3 31.801 Q 245.3 33.425 243.672 34.683 A 7.169 7.169 0 0 1 243.3 34.951 Q 241.3 36.301 238.8 36.301 A 7.579 7.579 0 0 1 236.336 35.913 A 6.605 6.605 0 0 1 234.2 34.701 A 4.176 4.176 0 0 1 233.515 33.947 Q 232.91 33.117 232.332 31.727 A 22.751 22.751 0 0 1 231.9 30.601 Q 230.8 27.501 230.8 23.701 A 18.556 18.556 0 0 1 232.986 14.598 Q 235.107 10.748 239.285 7.995 A 28.753 28.753 0 0 1 243.55 5.701 Q 256.3 0.101 280.8 0.101 Q 296.007 0.101 308.013 1.541 A 154.473 154.473 0 0 1 310.8 1.901 A 11.083 11.083 0 0 1 312.201 2.187 Q 313.887 2.656 314.65 3.601 Q 315.672 4.866 315.699 6.888 A 8.269 8.269 0 0 1 315.7 7.001 A 9.223 9.223 0 0 1 315.373 9.576 Q 314.144 13.796 308.3 13.401 Z M 157.226 84.718 Q 156.019 84.091 155.191 82.79 A 8.457 8.457 0 0 1 154.45 81.301 A 16.809 16.809 0 0 1 153.701 78.671 Q 153.103 75.802 152.952 71.553 A 85.718 85.718 0 0 1 152.9 68.501 A 81.944 81.944 0 0 1 156.045 45.637 A 76.942 76.942 0 0 1 156.6 43.801 A 9.683 9.683 0 0 1 157.437 41.844 A 6.654 6.654 0 0 1 159.55 39.551 A 7.202 7.202 0 0 1 161.488 38.677 Q 162.397 38.409 163.489 38.292 A 17.019 17.019 0 0 1 165.3 38.201 Q 166.854 38.201 167.684 38.503 A 2.213 2.213 0 0 1 168.1 38.701 A 1.541 1.541 0 0 1 168.721 39.478 Q 168.9 39.939 168.9 40.601 A 7.037 7.037 0 0 1 168.828 41.492 Q 168.633 42.967 167.905 45.862 A 131.293 131.293 0 0 1 167.4 47.801 Q 166.713 50.551 166.214 52.828 A 111.739 111.739 0 0 0 165.8 54.801 Q 165.388 56.863 165.07 59.588 A 103.09 103.09 0 0 0 164.8 62.201 Q 167.423 55.365 170.552 50.55 A 39.284 39.284 0 0 1 172.2 48.201 Q 175.102 44.379 177.929 42.11 A 18.98 18.98 0 0 1 180.25 40.501 Q 183.188 38.79 185.766 38.352 A 10.337 10.337 0 0 1 187.5 38.201 A 9.357 9.357 0 0 1 190.072 38.523 Q 192.957 39.349 193.723 42.294 A 9.576 9.576 0 0 1 194 44.701 A 23.598 23.598 0 0 1 193.871 46.959 Q 193.467 51.071 191.8 58.801 A 209.257 209.257 0 0 0 191.06 62.325 Q 190.108 67.075 189.938 69.4 A 12.459 12.459 0 0 0 189.9 70.301 A 8.127 8.127 0 0 0 190.015 71.736 Q 190.465 74.229 192.671 74.299 A 4.066 4.066 0 0 0 192.8 74.301 A 4.196 4.196 0 0 0 194.264 74.011 Q 195.51 73.546 196.985 72.335 A 18.563 18.563 0 0 0 197.55 71.851 Q 200.3 69.401 204.9 63.901 A 4.764 4.764 0 0 1 205.74 63.118 A 3.137 3.137 0 0 1 207.6 62.501 A 2.225 2.225 0 0 1 209.35 63.293 A 3.165 3.165 0 0 1 209.65 63.701 A 4.376 4.376 0 0 1 210.143 64.849 Q 210.4 65.77 210.4 67.001 Q 210.4 69.899 209.403 71.852 A 6.749 6.749 0 0 1 208.5 73.201 Q 204.2 78.501 199.25 81.901 Q 194.3 85.301 188 85.301 A 14.03 14.03 0 0 1 184.989 84.998 Q 182.067 84.356 180.3 82.351 A 9.508 9.508 0 0 1 178.413 78.937 Q 177.951 77.507 177.788 75.772 A 21.172 21.172 0 0 1 177.7 73.801 A 18.845 18.845 0 0 1 177.782 72.187 Q 178.014 69.54 178.903 64.832 A 187.798 187.798 0 0 1 179.1 63.801 A 135.129 135.129 0 0 0 179.638 61.062 Q 180.345 57.237 180.396 55.379 A 10.115 10.115 0 0 0 180.4 55.101 A 3.445 3.445 0 0 0 180.358 54.537 Q 180.191 53.536 179.36 53.502 A 1.452 1.452 0 0 0 179.3 53.501 Q 178.169 53.501 176.244 56.035 A 26.699 26.699 0 0 0 175.65 56.851 A 37.022 37.022 0 0 0 173.874 59.666 Q 172.381 62.263 170.85 65.701 Q 168.4 71.201 166.9 77.301 Q 166.054 80.917 165.001 82.727 A 5.867 5.867 0 0 1 164.35 83.651 Q 163.142 85.026 160.787 85.255 A 10.201 10.201 0 0 1 159.8 85.301 A 5.504 5.504 0 0 1 157.226 84.718 Z M 302.626 84.718 Q 301.419 84.091 300.591 82.79 A 8.457 8.457 0 0 1 299.85 81.301 A 16.809 16.809 0 0 1 299.101 78.671 Q 298.503 75.802 298.352 71.553 A 85.718 85.718 0 0 1 298.3 68.501 A 81.944 81.944 0 0 1 301.445 45.637 A 76.942 76.942 0 0 1 302 43.801 A 9.683 9.683 0 0 1 302.837 41.844 A 6.654 6.654 0 0 1 304.95 39.551 A 7.202 7.202 0 0 1 306.888 38.677 Q 307.797 38.409 308.889 38.292 A 17.019 17.019 0 0 1 310.7 38.201 Q 312.254 38.201 313.084 38.503 A 2.213 2.213 0 0 1 313.5 38.701 A 1.541 1.541 0 0 1 314.121 39.478 Q 314.3 39.939 314.3 40.601 A 7.037 7.037 0 0 1 314.228 41.492 Q 314.033 42.967 313.305 45.862 A 131.293 131.293 0 0 1 312.8 47.801 Q 312.113 50.551 311.614 52.828 A 111.739 111.739 0 0 0 311.2 54.801 Q 310.788 56.863 310.47 59.588 A 103.09 103.09 0 0 0 310.2 62.201 Q 312.823 55.365 315.952 50.55 A 39.284 39.284 0 0 1 317.6 48.201 Q 320.502 44.379 323.329 42.11 A 18.98 18.98 0 0 1 325.65 40.501 Q 328.588 38.79 331.166 38.352 A 10.337 10.337 0 0 1 332.9 38.201 A 9.357 9.357 0 0 1 335.472 38.523 Q 338.357 39.349 339.123 42.294 A 9.576 9.576 0 0 1 339.4 44.701 A 23.598 23.598 0 0 1 339.271 46.959 Q 338.867 51.071 337.2 58.801 A 209.257 209.257 0 0 0 336.46 62.325 Q 335.508 67.075 335.338 69.4 A 12.459 12.459 0 0 0 335.3 70.301 A 8.127 8.127 0 0 0 335.415 71.736 Q 335.865 74.229 338.071 74.299 A 4.066 4.066 0 0 0 338.2 74.301 A 4.196 4.196 0 0 0 339.664 74.011 Q 340.91 73.546 342.385 72.335 A 18.563 18.563 0 0 0 342.95 71.851 Q 345.7 69.401 350.3 63.901 A 4.764 4.764 0 0 1 351.14 63.118 A 3.137 3.137 0 0 1 353 62.501 A 2.225 2.225 0 0 1 354.75 63.293 A 3.165 3.165 0 0 1 355.05 63.701 A 4.376 4.376 0 0 1 355.543 64.849 Q 355.8 65.77 355.8 67.001 Q 355.8 69.899 354.803 71.852 A 6.749 6.749 0 0 1 353.9 73.201 Q 349.6 78.501 344.65 81.901 Q 339.7 85.301 333.4 85.301 A 14.03 14.03 0 0 1 330.389 84.998 Q 327.467 84.356 325.7 82.351 A 9.508 9.508 0 0 1 323.813 78.937 Q 323.351 77.507 323.188 75.772 A 21.172 21.172 0 0 1 323.1 73.801 A 18.845 18.845 0 0 1 323.182 72.187 Q 323.414 69.54 324.303 64.832 A 187.798 187.798 0 0 1 324.5 63.801 A 135.129 135.129 0 0 0 325.038 61.062 Q 325.745 57.237 325.796 55.379 A 10.115 10.115 0 0 0 325.8 55.101 A 3.445 3.445 0 0 0 325.758 54.537 Q 325.591 53.536 324.76 53.502 A 1.452 1.452 0 0 0 324.7 53.501 Q 323.569 53.501 321.644 56.035 A 26.699 26.699 0 0 0 321.05 56.851 A 37.022 37.022 0 0 0 319.274 59.666 Q 317.781 62.263 316.25 65.701 Q 313.8 71.201 312.3 77.301 Q 311.454 80.917 310.401 82.727 A 5.867 5.867 0 0 1 309.75 83.651 Q 308.542 85.026 306.187 85.255 A 10.201 10.201 0 0 1 305.2 85.301 A 5.504 5.504 0 0 1 302.626 84.718 Z M 136.684 84.852 A 9.47 9.47 0 0 1 130.95 80.701 Q 128.503 76.885 128.086 71.006 A 35.4 35.4 0 0 1 128 68.501 A 46.575 46.575 0 0 1 128.136 65.106 Q 128.395 61.577 129.15 56.951 A 115.141 115.141 0 0 1 130.842 48.509 A 96.723 96.723 0 0 1 132.1 43.801 A 15.701 15.701 0 0 1 132.654 42.159 Q 133.322 40.51 134.225 39.642 A 4.047 4.047 0 0 1 134.5 39.401 A 4.516 4.516 0 0 1 135.811 38.693 Q 137.186 38.201 139.3 38.201 A 11.317 11.317 0 0 1 141.098 38.331 Q 144.4 38.865 144.4 41.601 A 13.831 13.831 0 0 1 144.312 42.98 Q 143.998 46 142.554 52.943 A 333.394 333.394 0 0 1 142.5 53.201 A 243.091 243.091 0 0 0 141.565 57.674 Q 140.358 63.757 140.145 66.896 A 18.033 18.033 0 0 0 140.1 68.101 Q 140.1 71.101 140.9 72.701 A 2.931 2.931 0 0 0 141.693 73.707 Q 142.261 74.157 143.063 74.266 A 3.986 3.986 0 0 0 143.6 74.301 Q 145.4 74.301 148.1 71.801 A 42.627 42.627 0 0 0 149.761 70.165 Q 151.526 68.341 153.835 65.638 A 184.196 184.196 0 0 0 155.3 63.901 A 4.764 4.764 0 0 1 156.14 63.118 A 3.137 3.137 0 0 1 158 62.501 A 2.225 2.225 0 0 1 159.75 63.293 A 3.165 3.165 0 0 1 160.05 63.701 A 4.376 4.376 0 0 1 160.543 64.849 Q 160.8 65.77 160.8 67.001 Q 160.8 69.899 159.803 71.852 A 6.749 6.749 0 0 1 158.9 73.201 A 57.215 57.215 0 0 1 154.05 78.477 Q 148.498 83.745 143.383 84.946 A 13.017 13.017 0 0 1 140.4 85.301 A 14.405 14.405 0 0 1 136.684 84.852 Z M 210.884 84.852 A 9.47 9.47 0 0 1 205.15 80.701 Q 202.703 76.885 202.286 71.006 A 35.4 35.4 0 0 1 202.2 68.501 A 46.575 46.575 0 0 1 202.336 65.106 Q 202.595 61.577 203.35 56.951 A 115.141 115.141 0 0 1 205.042 48.509 A 96.723 96.723 0 0 1 206.3 43.801 A 15.701 15.701 0 0 1 206.854 42.159 Q 207.522 40.51 208.425 39.642 A 4.047 4.047 0 0 1 208.7 39.401 A 4.516 4.516 0 0 1 210.011 38.693 Q 211.386 38.201 213.5 38.201 A 11.317 11.317 0 0 1 215.298 38.331 Q 218.6 38.865 218.6 41.601 A 13.831 13.831 0 0 1 218.512 42.98 Q 218.198 46 216.754 52.943 A 333.394 333.394 0 0 1 216.7 53.201 A 243.091 243.091 0 0 0 215.765 57.674 Q 214.558 63.757 214.345 66.896 A 18.033 18.033 0 0 0 214.3 68.101 Q 214.3 71.101 215.1 72.701 A 2.931 2.931 0 0 0 215.893 73.707 Q 216.461 74.157 217.263 74.266 A 3.986 3.986 0 0 0 217.8 74.301 Q 219.6 74.301 222.3 71.801 A 42.627 42.627 0 0 0 223.961 70.165 Q 225.726 68.341 228.035 65.638 A 184.196 184.196 0 0 0 229.5 63.901 A 4.764 4.764 0 0 1 230.34 63.118 A 3.137 3.137 0 0 1 232.2 62.501 A 2.225 2.225 0 0 1 233.95 63.293 A 3.165 3.165 0 0 1 234.25 63.701 A 4.376 4.376 0 0 1 234.743 64.849 Q 235 65.77 235 67.001 Q 235 69.899 234.003 71.852 A 6.749 6.749 0 0 1 233.1 73.201 A 57.215 57.215 0 0 1 228.25 78.477 Q 222.698 83.745 217.583 84.946 A 13.017 13.017 0 0 1 214.6 85.301 A 14.405 14.405 0 0 1 210.884 84.852 Z M 368.6 85.301 Q 364.2 85.301 361.95 82.901 Q 359.7 80.501 359.7 76.601 A 12.867 12.867 0 0 1 360.055 73.494 A 9.008 9.008 0 0 1 362.25 69.401 A 8.338 8.338 0 0 1 366.541 67.006 A 12.649 12.649 0 0 1 369.4 66.701 A 14.355 14.355 0 0 1 371.933 66.91 Q 374.501 67.371 376.05 68.851 A 6.82 6.82 0 0 1 377.838 71.816 Q 378.3 73.298 378.3 75.201 A 13.181 13.181 0 0 1 377.942 78.36 A 9.175 9.175 0 0 1 375.7 82.551 A 8.591 8.591 0 0 1 370.888 85.101 A 12.513 12.513 0 0 1 368.6 85.301 Z M 138.891 31.429 Q 136.377 31.022 134.9 29.651 A 6.381 6.381 0 0 1 133.005 26.237 A 9.57 9.57 0 0 1 132.8 24.201 A 7.313 7.313 0 0 1 135.137 18.725 A 9.427 9.427 0 0 1 135.55 18.351 A 9.725 9.725 0 0 1 140.783 16.099 A 12.993 12.993 0 0 1 142.4 16.001 A 12.408 12.408 0 0 1 144.966 16.251 Q 146.631 16.603 147.912 17.45 A 7.5 7.5 0 0 1 148.4 17.801 A 5.858 5.858 0 0 1 150.644 21.906 A 8.542 8.542 0 0 1 150.7 22.901 A 9.921 9.921 0 0 1 150.319 25.722 A 7.555 7.555 0 0 1 148.1 29.251 A 8.852 8.852 0 0 1 143.985 31.317 A 12.934 12.934 0 0 1 141.2 31.601 A 14.478 14.478 0 0 1 138.891 31.429 Z M 213.091 31.429 Q 210.577 31.022 209.1 29.651 A 6.381 6.381 0 0 1 207.205 26.237 A 9.57 9.57 0 0 1 207 24.201 A 7.313 7.313 0 0 1 209.337 18.725 A 9.427 9.427 0 0 1 209.75 18.351 A 9.725 9.725 0 0 1 214.983 16.099 A 12.993 12.993 0 0 1 216.6 16.001 A 12.408 12.408 0 0 1 219.166 16.251 Q 220.831 16.603 222.112 17.45 A 7.5 7.5 0 0 1 222.6 17.801 A 5.858 5.858 0 0 1 224.844 21.906 A 8.542 8.542 0 0 1 224.9 22.901 A 9.921 9.921 0 0 1 224.519 25.722 A 7.555 7.555 0 0 1 222.3 29.251 A 8.852 8.852 0 0 1 218.185 31.317 A 12.934 12.934 0 0 1 215.4 31.601 A 14.478 14.478 0 0 1 213.091 31.429 Z" vector-effect="non-scaling-stroke"/></g></svg>